<?xml version="1.0" encoding="UTF-8" standalone="no"?>
<svg xmlns="http://www.w3.org/2000/svg" viewBox="0 0 128 128" version="1.1">
  <path fill="#00979C" d="M 45,0 C 20.147186,0 0,20.147186 0,45 0,69.852814 20.147186,90 45,90 69.852814,90 90,69.852814 90,45 90,20.147186 69.852814,0 45,0 Z m -0.455078,15.009766 c 4.47638,0 8.105468,3.629088 8.105468,8.105468 0,4.47638 -3.629088,8.107422 -8.105468,8.107422 -4.47638,0 -8.107422,-3.631042 -8.107422,-8.107422 0,-4.47638 3.631042,-8.105468 8.107422,-8.105468 z M 15,45 h 60 v 5 H 15 Z m 29.544922,16.882812 c 4.47638,0 8.107422,3.631042 8.107422,8.107422 0,4.47638 -3.631042,8.105469 -8.107422,8.105469 -4.47638,0 -8.105468,-3.629089 -8.105468,-8.105469 0,-4.47638 3.629088,-8.107422 8.105468,-8.107422 z"/>
</svg>